<svg xmlns="http://www.w3.org/2000/svg" viewBox="0 0 400 140">
  <defs>
    <style>
      @import url('https://fonts.googleapis.com/css2?family=Cormorant+Garamond:wght@300;400;700&amp;family=Montserrat:ital,wght@0,400;1,300&amp;display=swap');
    </style>
  </defs>
  <!-- GF Monogram outline style with arch above -->
  <g transform="translate(160, 3)">
    <!-- Arch above monogram -->
    <path d="M10 65 L10 35 Q10 5 40 5 Q70 5 70 35 L70 65" fill="none" stroke="#b8976a" stroke-width="1.5"/>
    <!-- Monogram inside arch -->
    <circle cx="40" cy="40" r="22" fill="none" stroke="#2c2c2c" stroke-width="2"/>
    <path d="M40 22 C32 22 26 29 26 40 C26 51 32 58 40 58 C47 58 52 54 54 48 L54 41 L42 41 L42 46 L49 46 L49 47 C47 52 44 54 40 54 C34 54 30 48 30 40 C30 32 34 26 40 26 C44 26 47 28 49 31 L53 28 C50 24 46 22 40 22Z" fill="#2c2c2c"/>
    <rect x="42" y="36" width="10" height="4" fill="#2c2c2c" rx="0.5"/>
  </g>
  <!-- Text below -->
  <text x="200" y="90" font-family="'Cormorant Garamond', serif" font-size="24" font-weight="400" fill="#2c2c2c" letter-spacing="6" text-anchor="middle">GABRIELA</text>
  <text x="200" y="112" font-family="'Cormorant Garamond', serif" font-size="24" font-weight="300" fill="#2c2c2c" letter-spacing="6" text-anchor="middle">PROJECTS</text>
  <text x="200" y="130" font-family="'Montserrat', sans-serif" font-size="7" font-weight="300" font-style="italic" fill="#888" letter-spacing="1.5" text-anchor="middle">Custom Design + Quality Construction</text>
</svg>