<svg xmlns="http://www.w3.org/2000/svg" viewBox="0 0 400 150">
  <defs>
    <style>
      @import url('https://fonts.googleapis.com/css2?family=Cormorant+Garamond:wght@300;400;700&amp;family=Montserrat:ital,wght@0,400;1,300&amp;display=swap');
    </style>
  </defs>
  <!-- GF monogram inside an arch shape -->
  <g transform="translate(155, 3)">
    <!-- Arch shape containing monogram -->
    <path d="M5 80 L5 40 Q5 2 45 2 Q85 2 85 40 L85 80 Z" fill="none" stroke="#b8976a" stroke-width="2"/>
    <!-- Inner arch detail -->
    <path d="M15 80 L15 42 Q15 12 45 12 Q75 12 75 42 L75 80" fill="none" stroke="#b8976a" stroke-width="0.5"/>
    <!-- GF monogram centered in arch -->
    <circle cx="45" cy="42" r="20" fill="#b8976a" stroke="none"/>
    <path d="M45 26 C37 26 32 32 32 42 C32 52 37 58 45 58 C51 58 55 55 57 50 L57 43 L47 43 L47 47 L53 47 L53 49 C51 53 49 54 45 54 C40 54 36 49 36 42 C36 35 40 30 45 30 C49 30 51 31 53 34 L57 31 C54 28 50 26 45 26Z" fill="#ffffff"/>
    <rect x="47" y="38" width="8" height="3.5" fill="#ffffff" rx="0.5"/>
    <!-- Keystone -->
    <path d="M41 3 L49 3 L47 9 L43 9 Z" fill="#b8976a"/>
  </g>
  <!-- Text below -->
  <text x="200" y="102" font-family="'Cormorant Garamond', serif" font-size="24" font-weight="400" fill="#2c2c2c" letter-spacing="6" text-anchor="middle">GABRIELA</text>
  <text x="200" y="124" font-family="'Cormorant Garamond', serif" font-size="24" font-weight="300" fill="#2c2c2c" letter-spacing="6" text-anchor="middle">PROJECTS</text>
  <text x="200" y="142" font-family="'Montserrat', sans-serif" font-size="7" font-weight="300" font-style="italic" fill="#888" letter-spacing="1.5" text-anchor="middle">Custom Design + Quality Construction</text>
</svg>