<svg xmlns="http://www.w3.org/2000/svg" viewBox="0 0 400 140">
  <defs>
    <style>
      @import url('https://fonts.googleapis.com/css2?family=Cormorant+Garamond:wght@300;400;700&amp;family=Montserrat:ital,wght@0,400;1,300&amp;display=swap');
    </style>
  </defs>
  <!-- GF Monogram - Gold version -->
  <g transform="translate(40, 20)">
    <circle cx="50" cy="50" r="48" fill="#b8976a" stroke="none"/>
    <path d="M50 12 C28 12 14 30 14 50 C14 70 28 88 50 88 C65 88 76 80 80 68 L80 52 L54 52 L54 62 L68 62 L68 66 C64 74 58 78 50 78 C34 78 26 66 26 50 C26 34 34 22 50 22 C60 22 68 27 72 34 L82 28 C76 18 64 12 50 12Z" fill="#ffffff"/>
    <rect x="54" y="42" width="22" height="8" fill="#ffffff" rx="1"/>
  </g>
  <!-- Stacked text centered -->
  <text x="280" y="45" font-family="'Cormorant Garamond', serif" font-size="22" font-weight="400" fill="#2c2c2c" letter-spacing="6" text-anchor="middle">GABRIELA</text>
  <text x="280" y="72" font-family="'Cormorant Garamond', serif" font-size="22" font-weight="400" fill="#2c2c2c" letter-spacing="6" text-anchor="middle">PROJECTS</text>
  <line x1="220" y1="80" x2="340" y2="80" stroke="#b8976a" stroke-width="0.5"/>
  <text x="280" y="95" font-family="'Montserrat', sans-serif" font-size="7" font-weight="300" font-style="italic" fill="#888" letter-spacing="1.5" text-anchor="middle">Custom Design + Quality Construction</text>
</svg>