<svg xmlns="http://www.w3.org/2000/svg" viewBox="0 0 420 140">
  <defs>
    <style>
      @import url('https://fonts.googleapis.com/css2?family=Cormorant+Garamond:wght@300;400;700&amp;family=Montserrat:ital,wght@0,400;1,300&amp;display=swap');
    </style>
  </defs>
  <!-- GF monogram small + vertical terracotta bar + text -->
  <!-- Small GF circle -->
  <g transform="translate(20, 30)">
    <circle cx="28" cy="28" r="26" fill="#2c2c2c" stroke="none"/>
    <path d="M28 10 C18 10 11 19 11 28 C11 37 18 46 28 46 C36 46 41 41 43 35 L43 29 L30 29 L30 34 L38 34 L38 35 C36 40 33 42 28 42 C21 42 16 36 16 28 C16 20 21 14 28 14 C33 14 36 16 38 20 L43 17 C40 12 35 10 28 10Z" fill="#ffffff"/>
    <rect x="30" y="24" width="12" height="4" fill="#ffffff" rx="0.5"/>
  </g>
  <!-- Terracotta vertical bar -->
  <rect x="88" y="25" width="3" height="90" fill="#C45B3E" rx="1"/>
  <!-- Text to the right of bar -->
  <text x="105" y="55" font-family="'Cormorant Garamond', serif" font-size="26" font-weight="400" fill="#2c2c2c" letter-spacing="5">GABRIELA</text>
  <text x="105" y="82" font-family="'Cormorant Garamond', serif" font-size="26" font-weight="300" fill="#2c2c2c" letter-spacing="5">PROJECTS</text>
  <text x="105" y="105" font-family="'Montserrat', sans-serif" font-size="7" font-weight="300" font-style="italic" fill="#888" letter-spacing="1.5">Custom Design + Quality Construction</text>
</svg>